<svg width="141" height="24" viewBox="0 0 141 24" fill="none" xmlns="http://www.w3.org/2000/svg">
<path d="M10.6006 0H0.5V24H10.6006L13.276 21.78V2.19L10.6006 0ZM9.36807 3.84V20.07L8.6466 20.7H4.40796V3.21H8.6466L9.36807 3.84Z" fill="#F4F4F4"/>
<path d="M27.6235 3.36V0H16.4407V24H27.6235V20.58H20.3487V13.35H25.91V10.05H20.3487V3.36H27.6235Z" fill="#F4F4F4"/>
<path d="M34.205 20.7V0H30.2971V24H39.4657V20.7H34.205Z" fill="#F4F4F4"/>
<path d="M45.6835 20.7V0H41.7755V24H50.9442V20.7H45.6835Z" fill="#F4F4F4"/>
<path d="M63.8356 24H67.8337L62.6932 0H57.2221L52.0816 24H56.0798L57.0417 18.63H62.8435L63.8356 24ZM57.6429 15.33L59.8073 3.51H60.0779L62.2423 15.33H57.6429Z" fill="#F4F4F4"/>
<path d="M79.0564 0H66.6712V3.3H70.9098V24H74.8178V3.3H79.0564V0Z" fill="#F4F4F4"/>
<path d="M91.1511 0H83.6659L81.0205 2.19V21.78L83.6659 24H91.1511L93.7965 21.78V2.19L91.1511 0ZM89.8886 3.84V20.07L89.1671 20.7H85.6499L84.9285 20.07V3.84L85.6499 3.21H89.1671L89.8886 3.84Z" fill="#F4F4F4"/>
<path d="M106.285 24H110.283L107.788 14.31L109.742 12.69V2.19L107.067 0H96.9661V24H100.874V14.88H104.301L106.285 24ZM100.874 3.21H105.113L105.834 3.84V11.04L105.113 11.67H100.874V3.21Z" fill="#F4F4F4"/>
<path d="M122.461 24H126.459L123.964 14.31L125.918 12.69V2.19L123.242 0H113.142V24H117.05V14.88H120.477L122.461 24ZM117.05 3.21H121.288L122.01 3.84V11.04L121.288 11.67H117.05V3.21Z" fill="#F4F4F4"/>
<path d="M140.5 3.36V0H129.317V24H140.5V20.58H133.225V13.35H138.786V10.05H133.225V3.36H140.5Z" fill="#F4F4F4"/>
</svg>
